<svg width="30" height="30" fill="none" xmlns="http://www.w3.org/2000/svg"><path d="M27.404 3h-2.49V2c0-.53-.21-1.04-.585-1.414a1.99 1.99 0 00-2.818 0A2.003 2.003 0 0020.927 2v1h-3.986V2c0-.53-.21-1.04-.584-1.414a1.99 1.99 0 00-2.818 0A2.003 2.003 0 0012.955 2v1H8.969V2c0-.53-.21-1.04-.584-1.414a1.99 1.99 0 00-2.819 0A2.004 2.004 0 004.983 2v1H2.49c-.66 0-1.294.263-1.761.732A2.504 2.504 0 000 5.5v20c0 .663.262 1.299.73 1.768.467.469 1.1.732 1.761.732h13.952a.497.497 0 00.498-.5.501.501 0 00-.498-.5H2.49a1.497 1.497 0 01-1.055-.44 1.507 1.507 0 01-.44-1.06V10H28.9v8.5a.5.5 0 00.498.5.498.498 0 00.499-.5v-13c0-.663-.263-1.299-.73-1.768A2.487 2.487 0 0027.404 3zm-5.48-1a1.002 1.002 0 01.996-1 .995.995 0 01.997 1v3a1.002 1.002 0 01-.997 1 .995.995 0 01-.996-1V2zM13.95 2a1.002 1.002 0 01.997-1 .995.995 0 01.996 1v3a1.002 1.002 0 01-.996 1 .995.995 0 01-.997-1V2zM5.98 2a1.002 1.002 0 01.997-1 .995.995 0 01.996 1v3a1.002 1.002 0 01-.996 1 .995.995 0 01-.997-1V2zM28.9 9H.997V5.5A1.5 1.5 0 012.491 4h2.492v1c0 .53.21 1.04.583 1.414a1.99 1.99 0 002.819 0c.374-.375.584-.884.584-1.414V4h3.986v1c0 .53.21 1.04.584 1.414a1.99 1.99 0 002.818 0c.374-.375.584-.884.584-1.414V4h3.986v1c0 .53.21 1.04.584 1.414a1.99 1.99 0 002.818 0c.374-.375.584-.884.584-1.414V4h2.491A1.5 1.5 0 0128.9 5.5V9z" fill="#81B58C"/><path d="M13.951 13.5a1.002 1.002 0 00-.996-1h-1.993a.995.995 0 00-.997 1V15a1.002 1.002 0 00.997 1h1.993a.995.995 0 00.996-1v-1.5zm-2.99 1.5v-1.5h1.994V15h-1.993zm-2.989-1.5a1.002 1.002 0 00-.996-1H4.983a.995.995 0 00-.997 1V15a1.002 1.002 0 00.997 1h1.993a.995.995 0 00.996-1v-1.5zM4.982 15v-1.5h1.994V15H4.983zm19.931 1a.995.995 0 00.997-1v-1.5a1.002 1.002 0 00-.997-1H22.92a.995.995 0 00-.996 1V15a1.002 1.002 0 00.996 1h1.993zm-1.993-2.5h1.993V15H22.92v-1.5zM13.951 18a1.002 1.002 0 00-.996-1h-1.993a.995.995 0 00-.997 1v1.5a1.002 1.002 0 00.997 1h1.993a.995.995 0 00.996-1V18zm-2.99 1.5V18h1.994v1.5h-1.993zM7.972 18a1.002 1.002 0 00-.996-1H4.983a.995.995 0 00-.997 1v1.5a1.002 1.002 0 00.997 1h1.993a.995.995 0 00.996-1V18zm-2.99 1.5V18h1.994v1.5H4.983zm7.973 2h-1.993a.995.995 0 00-.997 1V24a1.002 1.002 0 00.997 1h1.993a.995.995 0 00.996-1v-1.5a1.002 1.002 0 00-.996-1zM10.962 24v-1.5h1.993V24h-1.993zm5.978-8h1.994a.995.995 0 00.996-1v-1.5a1.002 1.002 0 00-.996-1h-1.993a.995.995 0 00-.997 1V15a1.002 1.002 0 00.997 1zm0-2.5h1.994V15h-1.993v-1.5zm-.996 6a1.002 1.002 0 00.997 1 .498.498 0 00.498-.5.501.501 0 00-.498-.5V18h1.993a.498.498 0 00.498-.5.501.501 0 00-.498-.5h-1.993a.995.995 0 00-.997 1v1.5zm-8.968 2H4.983a.995.995 0 00-.997 1V24a1.002 1.002 0 00.997 1h1.993a.995.995 0 00.996-1v-1.5a1.002 1.002 0 00-.996-1zM4.983 24v-1.5h1.993V24H4.983zm18.435-7a6.461 6.461 0 00-3.598 1.095 6.495 6.495 0 00-2.386 2.918 6.52 6.52 0 001.404 7.083 6.456 6.456 0 007.059 1.409 6.482 6.482 0 002.907-2.394 6.516 6.516 0 00-.808-8.205A6.474 6.474 0 0023.418 17zm0 12a5.468 5.468 0 01-3.045-.927 5.496 5.496 0 01-2.018-2.468 5.517 5.517 0 011.188-5.994 5.463 5.463 0 015.973-1.192 5.484 5.484 0 012.46 2.025 5.513 5.513 0 01-.684 6.943A5.478 5.478 0 0123.418 29z" fill="#81B58C"/><path d="M26.297 21.404l-3.875 3.889-1.762-1.768a.497.497 0 00-.844.355.5.5 0 00.14.352l2.114 2.122a.498.498 0 00.704 0l4.228-4.243a.501.501 0 00-.354-.847.497.497 0 00-.35.14z" fill="#81B58C"/></svg>