<svg width="166" height="28" fill="none" xmlns="http://www.w3.org/2000/svg"><path d="M3.36 27V6.18H.3V1.23h11.28v4.95H8.52V27H3.36zm13.575 0V1.23h5.13v9.21h2.43V1.23h5.13V27h-5.13V15.3h-2.43V27h-5.13zm18.87 0V1.23h10.32v4.98h-5.07v5.01h4.86v4.86h-4.86v5.91h5.4V27h-10.65zm32.505.24c-1.86 0-3.25-.65-4.17-1.95-.9-1.32-1.35-3.31-1.35-5.97V8.22c0-2.38.53-4.18 1.59-5.4C65.44 1.6 67.02.99 69.12.99c1.7 0 3.02.34 3.96 1.02.94.68 1.59 1.67 1.95 2.97.36 1.3.54 2.97.54 5.01h-5.04V7.68c0-.62-.09-1.1-.27-1.44-.16-.34-.46-.51-.9-.51-.98 0-1.47.64-1.47 1.92v12.48c0 .78.1 1.37.3 1.77.2.4.55.6 1.05.6s.85-.2 1.05-.6c.2-.4.3-.99.3-1.77v-3.69h-1.38V12h6.3v15h-2.07l-.87-2.16c-.92 1.6-2.34 2.4-4.26 2.4zM80.77 27l2.49-25.77h8.73L94.45 27h-4.89l-.36-4.17h-3.12l-.3 4.17h-5.01zm5.7-8.28h2.34L87.67 5.61h-.24l-.96 13.11zM99.92 1.23h7.921c1.26 0 2.23.29 2.91.87.7.56 1.17 1.36 1.41 2.4.24 1.02.36 2.33.36 3.93 0 1.46-.19 2.6-.57 3.42-.38.82-1.04 1.39-1.98 1.71.78.16 1.34.55 1.68 1.17.36.62.54 1.46.54 2.52l-.06 9.75h-5.04V16.92c0-.72-.14-1.18-.42-1.38-.28-.2-.79-.3-1.53-.3V27h-5.22V1.23zm6.481 9.54c.72 0 1.08-.78 1.08-2.34 0-.68-.03-1.19-.09-1.53-.06-.34-.17-.57-.33-.69-.16-.14-.39-.21-.69-.21h-1.2v4.77h1.23zm11.717-9.54h7.11c1.84 0 3.22.51 4.14 1.53.92 1.02 1.39 2.53 1.41 4.53l.06 12.06c.02 2.54-.42 4.45-1.32 5.73-.9 1.28-2.39 1.92-4.47 1.92h-6.93V1.23zm6.09 21.21c.94 0 1.41-.46 1.41-1.38V7.77c0-.58-.05-1.01-.15-1.29-.08-.3-.24-.5-.48-.6-.24-.1-.61-.15-1.11-.15h-.57v16.71h.9zM136.813 27V1.23h10.32v4.98h-5.07v5.01h4.86v4.86h-4.86v5.91h5.4V27h-10.65zm16.263 0V1.23h5.31l2.37 12.33V1.23h4.98V27h-5.04l-2.58-12.9V27h-5.04z" fill="url(#paint0_linear)"/><defs><linearGradient id="paint0_linear" x1="83.5" y1="-7" x2="83.5" y2="37" gradientUnits="userSpaceOnUse"><stop offset=".348" stop-color="#323D34"/><stop offset="1" stop-color="#81B58C"/></linearGradient></defs></svg>