<svg width="60" height="60" fill="none" xmlns="http://www.w3.org/2000/svg"><circle cx="30" cy="30" r="30" fill="url(#paint0_linear)"/><path d="M39.871 18H21.63C19.569 18 18 19.57 18 21.629V39.87c0 2.06 1.57 3.629 3.629 3.629H39.87c2.06 0 3.629-1.57 3.629-3.629V21.63c0-2.06-1.57-3.629-3.629-3.629zM30.75 38.4c4.217 0 7.65-3.335 7.65-7.356 0-.686-.098-1.47-.294-2.06h2.157v10.397c0 .49-.392.98-.98.98H22.217a.983.983 0 01-.98-.98V28.887h2.255a7.469 7.469 0 00-.294 2.06C23.1 35.064 26.533 38.4 30.75 38.4zm0-2.942c-2.746 0-4.904-2.158-4.904-4.806s2.158-4.806 4.904-4.806 4.904 2.158 4.904 4.806c0 2.746-2.158 4.806-4.904 4.806zm9.415-10.494c0 .588-.49 1.078-1.078 1.078H36.34c-.588 0-1.079-.49-1.079-1.079v-2.648c0-.588.49-1.079 1.08-1.079h2.745c.589 0 1.08.49 1.08 1.08v2.648z" fill="#fff"/><defs><linearGradient id="paint0_linear" x1="12.75" y1="53.25" x2="52.5" y2="12" gradientUnits="userSpaceOnUse"><stop stop-color="#EEA054"/><stop offset=".503" stop-color="#D64763"/><stop offset="1" stop-color="#B62A99"/></linearGradient></defs></svg>