<svg width="11" height="15" fill="none" xmlns="http://www.w3.org/2000/svg"><path fill-rule="evenodd" clip-rule="evenodd" d="M5.5 15S11 9.67 11 5.625a5.69 5.69 0 00-1.61-3.977A5.439 5.439 0 005.5 0a5.439 5.439 0 00-3.89 1.648A5.69 5.69 0 000 5.625C0 9.669 5.5 15 5.5 15zm0-6.563a2.72 2.72 0 001.945-.823 2.845 2.845 0 00.805-1.989 2.85 2.85 0 00-.805-1.989A2.72 2.72 0 005.5 2.812a2.72 2.72 0 00-1.945.824 2.845 2.845 0 00-.805 1.989c0 .746.29 1.461.805 1.989a2.72 2.72 0 001.945.824z" fill="#81B58C"/></svg>