<svg width="60" height="60" fill="none" xmlns="http://www.w3.org/2000/svg"><circle cx="30" cy="30" r="30" fill="#55ACE3"/><path d="M45.9 22.35c-1.05.45-2.25.75-3.45.9 1.2-.75 2.25-1.95 2.7-3.3-1.2.75-2.4 1.2-3.9 1.5-1.05-1.2-2.7-1.95-4.35-1.95-3.3 0-6 2.7-6 6 0 .45 0 .9.15 1.35-4.95-.3-9.45-2.7-12.45-6.3-.45.9-.75 1.95-.75 3 0 2.1 1.05 3.9 2.7 4.95-1.05 0-1.95-.3-2.7-.75 0 2.85 2.1 5.4 4.8 5.85-.45.15-1.05.15-1.65.15-.45 0-.75 0-1.2-.15.75 2.4 3 4.2 5.7 4.2-2.1 1.65-4.65 2.55-7.5 2.55-.45 0-.9 0-1.5-.15 2.7 1.65 5.85 2.7 9.3 2.7 11.1 0 17.1-9.15 17.1-17.1v-.75c1.2-.45 2.25-1.5 3-2.7z" fill="#fff"/></svg>